<?xml version="1.0" encoding="utf-8"?>
<!-- Generator: Adobe Illustrator 18.0.0, SVG Export Plug-In . SVG Version: 6.00 Build 0)  -->
<svg version="1.2" baseProfile="tiny" id="图层_1"
	 xmlns="http://www.w3.org/2000/svg" xmlns:xlink="http://www.w3.org/1999/xlink" x="0px" y="0px" viewBox="0 0 313 73"
	 xml:space="preserve">
<g>
	<path fill="#FFFFFF" d="M61.9,53.2V22.5L34.6,7.1L7.3,22.5v30.7l27.3,15.3L61.9,53.2z M57.9,33c-1.1,2.5-2.7,3.6-5.3,4.1
		c-4.1,0.8-8.8-3.5-12-5.7c-0.2-0.2-0.7-0.5-1-0.6l0.4-0.5c1.6-2,4.2-4.4,7.4-6.2c3.6-2,7.2-1.6,9.6,1.2C58.6,27.3,59,30.7,57.9,33z
		 M53.1,20.3c-0.3,0-0.7,0.1-1,0.2c-4.9,1.2-9.2,4.8-12.5,8.9l0,0l-0.1,0.2c-0.2,0.2-0.4,0.5-0.6,0.7c-14.9-9.9-22-9.8-26.7-7.9
		L34.6,9.9L53.1,20.3z M10.3,23.5c9.3-2.4,15.5,4.9,25.8,11c-0.7,1-1.3,2-2.1,3.1l-1.9,2.7c-4-2.6-8.1-4.6-12.4-4.7
		c-4.8-0.1-8.5,2.6-10,6.1c0,0.1,0,0.1-0.1,0.2V23.9L10.3,23.5z M11.2,42.9c0.9-2.5,2.9-4,5.5-4.5c4.1-0.8,9.6,4.2,11.9,5.6
		c0.2,0.1,0.6,0.4,0.8,0.5L28,46.5c-1.5,1.7-3.7,3.5-6.2,4.9c-3.6,2-7.2,1.5-9.6-1.3C10.7,48.1,10.3,45.3,11.2,42.9z M15.4,55
		c0.5,0,1.1,0,1.7,0c4.7-0.3,8.5-4.3,11.7-8.1l0,0l0,0c0.5-0.6,0.9-1.2,1.4-1.8c17.6,11.7,24.4,9.4,29.2,6.7
		c-9.6,2.9-17.8-5.2-26.4-10.9c1.3-1.8,2.5-3.7,3.8-5.6l0.1-0.2c4,2.6,8.1,4.7,12.5,4.7c4.8,0.1,8.1-2.8,10-6.1c0,0,0-0.1,0.1-0.1
		v18.2l-24.9,14L15.4,55z"/>
	<g>
		<path fill="#FFFFFF" d="M94.9,25.2c1.2,0,1.9,0.2,2.1,0.6c0.3,0.4,0.4,1.1,0.4,2.2v9.3H80.8V27.1c0-0.7,0.2-1.2,0.5-1.5
			c0.4-0.2,1.1-0.4,2.1-0.4v-0.3H74v0.3c1.2,0,1.9,0.2,2.2,0.5c0.3,0.3,0.4,1.1,0.4,2.3v21c0,1.3-0.9,1.9-2.6,1.8v0.3h9.4v-0.3
			c-0.8,0-1.4-0.1-1.8-0.3c-0.3-0.2-0.6-0.4-0.7-0.7c-0.1-0.3-0.2-0.9-0.2-1.8V38h16.6V48c0,1.3-0.2,2.1-0.5,2.4
			c-0.3,0.3-1,0.4-2,0.4v0.3h9.3v-0.3c-0.8,0-1.4-0.1-1.7-0.2c-0.3-0.2-0.6-0.4-0.7-0.6c-0.1-0.3-0.2-0.9-0.2-1.9V27.9
			c0-1.1,0.1-1.7,0.2-2c0.1-0.3,0.4-0.5,0.7-0.6c0.4-0.1,0.9-0.2,1.6-0.2v-0.3h-9.3V25.2z"/>
		<path fill="#FFFFFF" d="M133.7,49.5c-0.4,0.3-0.9,0.5-1.5,0.6c-0.6,0.1-1.9,0.1-3.9,0.1h-6.4c-1.4,0-2.4-0.1-3.1-0.2
			c-0.7-0.1-1.2-0.5-1.5-1c-0.3-0.5-0.5-1.4-0.5-2.6v-8.1h11.5c0.8,0,1.4,0.1,1.7,0.2c0.3,0.1,0.5,0.4,0.6,0.7h0.4v-2.5h-0.4
			c0,0.3-0.2,0.5-0.5,0.7c-0.3,0.1-1,0.2-2.1,0.2h-11.2V25.8h12c1.3,0,2.2,0.1,2.5,0.3c0.3,0.2,0.8,1,1.3,2.4h0.4v-3.6h-22.9v0.3
			c1.3,0,2,0.2,2.2,0.6c0.2,0.4,0.3,1.1,0.3,2v21.1c0,0.8-0.2,1.3-0.7,1.5c-0.4,0.2-1.1,0.3-1.9,0.3v0.3H135v-3.6h-0.4
			C134.4,48.5,134.1,49.1,133.7,49.5z"/>
		<path fill="#FFFFFF" d="M296.8,48.4v-12l8.9-9.7c0.6-0.6,1.1-1,1.5-1.2c0.4-0.2,1-0.3,1.7-0.4v-0.3h-5.5v0.3h0.1
			c0.7,0,1.1,0.2,1.1,0.6c0,0.1-0.1,0.3-0.3,0.5c-0.2,0.3-0.3,0.4-0.5,0.5l-8,8.8l-7.4-8.7c-0.4-0.5-0.6-0.8-0.6-1
			c0-0.4,0.4-0.7,1.2-0.7v-0.3h-8.6v0.3c1.2,0,2.2,0.5,3.1,1.6l8.9,10.6v11l0.1,0.7c0,1.1-0.9,1.7-2.8,1.6v0.3h9.8v-0.3
			c-1.2,0-1.9-0.1-2.3-0.5C297,50,296.8,49.4,296.8,48.4z"/>
		<path fill="#FFFFFF" d="M265.3,25.2c1.2,0,1.9,0.2,2.1,0.6c0.3,0.4,0.4,1.1,0.4,2.2v9.3h-16.6V27.1c0-0.7,0.2-1.2,0.5-1.5
			c0.4-0.2,1.1-0.4,2.1-0.4v-0.3h-9.4v0.3c1.2,0,1.9,0.2,2.2,0.5c0.3,0.3,0.4,1.1,0.4,2.3v21c0,1.3-0.9,1.9-2.6,1.8v0.3h9.4v-0.3
			c-0.8,0-1.4-0.1-1.8-0.3c-0.3-0.2-0.6-0.4-0.7-0.7c-0.1-0.3-0.2-0.9-0.2-1.8V38h16.6V48c0,1.3-0.2,2.1-0.5,2.4
			c-0.3,0.3-1,0.4-2,0.4v0.3h9.3v-0.3c-0.8,0-1.4-0.1-1.7-0.2c-0.3-0.2-0.6-0.4-0.7-0.6c-0.1-0.3-0.2-0.9-0.2-1.9V27.9
			c0-1.1,0.1-1.7,0.2-2c0.1-0.3,0.4-0.5,0.7-0.6c0.4-0.1,0.9-0.2,1.6-0.2v-0.3h-9.3V25.2z"/>
		<path fill="#FFFFFF" d="M235.9,28c-0.8-0.9-2-1.6-3.7-2.2c-1.7-0.6-4.4-0.9-8.1-0.9h-10.4v0.3c1.1,0,1.7,0.1,2.1,0.5
			c0.3,0.3,0.5,0.9,0.5,1.8v21.6c0,1.1-0.9,1.7-2.6,1.7v0.3h9.6v-0.3c-1.1,0-1.9-0.1-2.3-0.4c-0.4-0.2-0.6-1-0.6-2.3V25.8h2.6
			c2.6,0,4.6,0.3,5.8,0.8c1.3,0.5,2.3,1.3,3,2.3c0.7,1,1,2.1,1,3.4c0,1.7-0.7,3-2.2,4c-1.4,1-3.3,1.5-5.6,1.5v0.3
			c3.6,0,6.5-0.5,8.7-1.6c2.1-1.1,3.2-2.8,3.2-5C237.1,30.1,236.7,28.9,235.9,28z"/>
		<path fill="#FFFFFF" d="M177.5,54.3c-1.2,0-2.5-0.3-3.8-0.8c-1.3-0.5-3.2-2-5.6-4.4c-2.4-2.4-9.3-11.5-9.3-11.5
			c2-0.8,3.6-1.9,4.7-3c1.1-1.2,1.7-2.5,1.7-3.8c0-1.2-0.3-2.1-0.9-2.9c-0.6-0.8-1.6-1.4-2.8-1.9c-1.2-0.5-2.4-0.7-3.6-0.8
			c-1.2-0.1-3.1-0.1-5.7-0.1h-10.4v0.3c1.3,0,2,0.2,2.3,0.7c0.2,0.4,0.4,1,0.4,1.7v20.8c0,1-0.2,1.6-0.4,1.9c-0.3,0.3-1,0.5-2.2,0.5
			v0.3h9.4v-0.3c-1.1,0-1.8-0.2-2.1-0.5c-0.3-0.4-0.4-0.9-0.4-1.7v-10h3l3.3-0.1c0,0,7.2,9.6,7.3,9.6c3.3,3.8,5.1,5,6.6,5.9
			c1.5,0.9,3.3,1.3,5.5,1.3c3.2,0,5.7-0.6,7.7-1.7l-0.1-0.4C180.1,53.9,178.7,54.3,177.5,54.3z M152.4,37.9h-3.8V25.6h3
			c3.6,0,6.1,0.7,7.6,2.2c1.4,1.4,2.1,3,2.1,4.6c0,1.7-0.7,3-2.2,4C157.6,37.4,155.4,37.9,152.4,37.9z"/>
		<path fill="#FFFFFF" d="M202.3,38.7c-1.3-1.2-3.3-2-5.9-2.3c3-1.3,4.6-3,4.6-5.2c0-1.1-0.4-2.1-1.1-3c-0.7-0.9-1.6-1.6-2.7-2
			c-1.1-0.5-2.2-0.8-3.3-0.9c-1.2-0.2-3.1-0.3-5.9-0.3h-9.5v0.3c0.7,0,1.3,0.1,1.7,0.3c0.4,0.2,0.7,0.4,0.7,0.8
			c0.1,0.3,0.1,1,0.1,1.9v19.7c0,1.3-0.2,2.2-0.5,2.5c-0.3,0.3-1,0.5-2.2,0.5v0.3h14.1c2.7,0,4.7-0.2,6.2-0.7
			c1.5-0.5,2.8-1.3,3.9-2.7c1.1-1.3,1.7-2.8,1.7-4.5C204.3,41.5,203.6,40,202.3,38.7z M185.2,25.5h1c2.8,0,5,0.2,6.5,0.7
			c1.5,0.5,2.6,1.1,3.3,2c0.8,0.9,1.1,2,1.1,3.3c0,1.2-0.5,2.4-1.5,3.7c-1,1.2-3,1.8-6,1.8h-4.4V25.5z M198.6,49
			c-1.2,0.9-3.2,1.4-6,1.4c-1.8,0-3.2-0.1-4.2-0.3c-1-0.2-1.7-0.5-2.1-0.9c-0.4-0.4-0.7-0.7-0.8-1.1c-0.1-0.3-0.2-1.1-0.2-2.2v-8.3
			h2.9c3.5,0,5.9,0.1,7.2,0.4c1.3,0.3,2.5,1,3.5,2.2c1,1.2,1.6,2.8,1.6,4.7C200.3,46.6,199.7,48,198.6,49z"/>
		<g>
			<path fill="#FFFFFF" d="M306.3,45.9c-1.5,0-2.6,1.2-2.6,2.6c0,1.4,1.2,2.6,2.6,2.6c1.4,0,2.6-1.2,2.6-2.6
				C308.9,47.1,307.8,45.9,306.3,45.9z M306.3,50.9c-1.3,0-2.3-1-2.3-2.3c0-1.3,1-2.3,2.3-2.3c1.3,0,2.3,1,2.3,2.3
				C308.6,49.8,307.6,50.9,306.3,50.9z"/>
			<path fill="#FFFFFF" d="M306.8,48.8c-0.1-0.1-0.1-0.1-0.2-0.2v0c0.5-0.1,0.7-0.4,0.7-0.9c0-0.3-0.1-0.5-0.3-0.6
				c-0.2-0.1-0.4-0.2-0.7-0.2h-1v3.2h0.4v-1.4h0.3c0.1,0,0.2,0,0.3,0.1c0.1,0.1,0.2,0.2,0.3,0.4l0.5,0.9h0.5l-0.6-1
				C307,49,306.9,48.9,306.8,48.8z M306.3,48.4h-0.5v-1.1h0.5c0.2,0,0.4,0,0.5,0.1c0.1,0.1,0.2,0.2,0.2,0.4c0,0.2-0.1,0.3-0.2,0.4
				C306.6,48.4,306.4,48.4,306.3,48.4z"/>
		</g>
	</g>
</g>
</svg>
