<?xml version="1.0" encoding="utf-8"?>
<!-- Generator: Adobe Illustrator 18.0.0, SVG Export Plug-In . SVG Version: 6.00 Build 0)  -->
<svg version="1.2" baseProfile="tiny" id="图层_1"
	 xmlns="http://www.w3.org/2000/svg" xmlns:xlink="http://www.w3.org/1999/xlink" x="0px" y="0px" viewBox="0 0 36.8 36.8"
	 xml:space="preserve">
<g>
	<g>
		<path fill="#3E3A39" d="M30,33.4H6.7c-1.2,0-2.3-1-2.3-2.3V5.9c0-1.2,1-2.3,2.3-2.3h3.5V5H6.7C6.3,5,5.9,5.4,5.9,5.9v25.2
			c0,0.5,0.4,0.9,0.9,0.9H30c0.5,0,0.9-0.4,0.9-0.9V5.9C30.9,5.4,30.5,5,30,5h-3.1V3.6H30c1.2,0,2.3,1,2.3,2.3v25.2
			C32.3,32.4,31.3,33.4,30,33.4z"/>
	</g>
	<g>
		<rect x="12.5" y="3.3" fill="#3E3A39" width="12" height="2"/>
	</g>
	<g>
		<g>
			<rect x="9.1" y="11.4" fill="#3E3A39" width="18.6" height="1.4"/>
		</g>
		<g>
			<rect x="9.1" y="17.8" fill="#3E3A39" width="18.6" height="1.4"/>
		</g>
		<g>
			<rect x="9.1" y="24.2" fill="#3E3A39" width="18.6" height="1.4"/>
		</g>
	</g>
</g>
</svg>
