<?xml version="1.0" encoding="utf-8"?>
<!-- Generator: Adobe Illustrator 18.0.0, SVG Export Plug-In . SVG Version: 6.00 Build 0)  -->
<svg version="1.2" baseProfile="tiny" id="图层_1"
	 xmlns="http://www.w3.org/2000/svg" xmlns:xlink="http://www.w3.org/1999/xlink" x="0px" y="0px" viewBox="0 0 36.8 36.8"
	 xml:space="preserve">
<g>
	<g>
		<path fill="#3E3A39" d="M18.8,35.2C9.5,35.2,2,27.7,2,18.5S9.5,1.8,18.8,1.8s16.7,7.5,16.7,16.7S28,35.2,18.8,35.2z M18.8,3.2
			c-8.4,0-15.3,6.9-15.3,15.3s6.9,15.3,15.3,15.3S34.1,27,34.1,18.5S27.2,3.2,18.8,3.2z"/>
	</g>
	<g>
		<path fill="#3E3A39" d="M18.8,35.2c-4.2,0-8.2-1.6-11.3-4.5l-0.6-0.5l0.6-0.5c2.3-2.1,5-4.4,8-5.4l0.5,1.3c-2.5,0.9-4.9,2.8-7,4.6
			c2.8,2.3,6.2,3.6,9.8,3.6c3.6,0,7.1-1.3,9.8-3.6c-1.9-1.7-4.1-3.4-6.4-4.4l0.5-1.3c2.8,1.1,5.3,3.3,7.4,5.2l0.6,0.5l-0.6,0.5
			C27,33.7,23,35.2,18.8,35.2z"/>
	</g>
	<g>
		<path fill="#3E3A39" d="M18.8,26.7c-4.5,0-8.2-4.3-8.2-9.6c0-5.3,3.7-9.6,8.2-9.6s8.2,4.3,8.2,9.6C26.9,22.4,23.3,26.7,18.8,26.7z
			 M18.8,8.8c-3.7,0-6.8,3.7-6.8,8.2c0,4.5,3,8.2,6.8,8.2s6.8-3.7,6.8-8.2C25.5,12.5,22.5,8.8,18.8,8.8z"/>
	</g>
</g>
</svg>
