<?xml version="1.0" encoding="utf-8"?>
<!-- Generator: Adobe Illustrator 18.0.0, SVG Export Plug-In . SVG Version: 6.00 Build 0)  -->
<svg version="1.2" baseProfile="tiny" id="图层_1"
	 xmlns="http://www.w3.org/2000/svg" xmlns:xlink="http://www.w3.org/1999/xlink" x="0px" y="0px" viewBox="0 0 36.8 36.8"
	 xml:space="preserve">
<g>
	<g>
		<path fill="#3E3A39" d="M29.2,26.2H14.6c-4,0-5.2-4.8-5.2-5c0-0.1-2.2-9.4-3-13.4C6.1,6.4,5.6,5.5,5,5.1C4.5,4.7,4.1,4.8,4.1,4.8
			L4,4.8H0.1V3.4h3.8c0.3,0,1-0.1,1.9,0.4c1,0.6,1.7,1.9,2,3.6c0.8,4,3,13.3,3,13.4c0,0,1,3.9,3.9,3.9h14.6V26.2z"/>
	</g>
	<g>
		<path fill="#3E3A39" d="M30.4,21.7H10.1v-1.4h19.4l5.7-12c0,0,0.2-0.5,0-0.8C35,7.2,34.3,7,33.3,7H10.1V5.6h23.2
			c1.6,0,2.6,0.4,3.1,1.2c0.6,1,0.1,2,0,2.1L30.4,21.7z"/>
	</g>
	<g>
		<path fill="#3E3A39" d="M13.6,33.3c-2.3,0-4.2-1.9-4.2-4.2s1.9-4.2,4.2-4.2s4.2,1.9,4.2,4.2S16,33.3,13.6,33.3z M13.6,26.3
			c-1.6,0-2.8,1.3-2.8,2.8s1.3,2.8,2.8,2.8s2.8-1.3,2.8-2.8S15.2,26.3,13.6,26.3z"/>
	</g>
	<g>
		<path fill="#3E3A39" d="M28.9,33.3c-2.3,0-4.2-1.9-4.2-4.2s1.9-4.2,4.2-4.2s4.2,1.9,4.2,4.2S31.3,33.3,28.9,33.3z M28.9,26.3
			c-1.6,0-2.8,1.3-2.8,2.8s1.3,2.8,2.8,2.8s2.8-1.3,2.8-2.8S30.5,26.3,28.9,26.3z"/>
	</g>
</g>
</svg>
