<?xml version="1.0" standalone="no"?><!DOCTYPE svg PUBLIC "-//W3C//DTD SVG 1.1//EN" "http://www.w3.org/Graphics/SVG/1.1/DTD/svg11.dtd"><svg width="200" height="200" viewBox="0 0 200 200" version="1.1" xmlns="http://www.w3.org/2000/svg" xmlns:xlink="http://www.w3.org/1999/xlink"><defs><style type="text/css"><![CDATA[
@font-face { font-family: ifont; src: url("//at.alicdn.com/t/font_1442373896_4754455.eot?#iefix") format("embedded-opentype"), url("//at.alicdn.com/t/font_1442373896_4754455.woff") format("woff"), url("//at.alicdn.com/t/font_1442373896_4754455.ttf") format("truetype"), url("//at.alicdn.com/t/font_1442373896_4754455.svg#ifont") format("svg"); }

]]></style></defs><g class="transform-group"><g transform="scale(0.1953125, 0.1953125)"><path d="M511.999 1024c-136.776 0-265.356-53.257-362.054-149.959C53.252 777.343 0 648.768 0 512.001c0-136.769 53.252-265.344 149.943-362.042C246.641 53.257 375.22 0 511.999 0 794.317 0 1024 229.683 1024 512.001 1024 794.317 794.317 1024 511.999 1024z m0-976.036c-255.871 0-464.035 208.167-464.035 464.037s208.164 464.035 464.035 464.035 464.037-208.164 464.037-464.035S767.869 47.964 511.999 47.964zM775.858 916.058c-38.851-98.963-137.034-179.461-233.456-191.408l-21.033-2.604v-84.927l18.059-4.604c63.067-16.073 105.441-69.533 105.441-133.027 0-77.77-59.613-138.692-135.715-138.692-77.253 0-140.104 62.217-140.104 138.692 0 66.224 46.397 123.305 110.324 135.725l19.408 3.771v82.323l-20.977 2.649c-101.836 12.865-194.04 87.274-229.434 185.162l-45.107-16.31c38.924-107.642 136.781-191.012 247.554-213.029v-2.372c-76.243-23.741-129.732-95.604-129.732-177.918 0-102.923 84.367-186.656 188.068-186.656 49.776 0 96.194 19.492 130.699 54.887 34.165 35.045 52.98 81.84 52.98 131.769 0 79.536-48.898 147.336-123.5 173.995v7.026c49.917 10.223 99.07 34.659 143.317 71.421 48.139 39.996 86.442 92.059 107.855 146.601l-44.647 17.526z" fill="#fff"></path></g></g></svg>