<?xml version="1.0" encoding="utf-8"?>
<!-- Generator: Adobe Illustrator 18.0.0, SVG Export Plug-In . SVG Version: 6.00 Build 0)  -->
<svg version="1.2" baseProfile="tiny" id="图层_1"
	 xmlns="http://www.w3.org/2000/svg" xmlns:xlink="http://www.w3.org/1999/xlink" x="0px" y="0px" viewBox="0 0 36.8 36.8"
	 xml:space="preserve">
<g>
	<path fill="#898989" d="M32.8,8.3h-7.8V7.5c0-2.1-1.7-3.9-3.9-3.9h-4.5c-2.1,0-3.9,1.7-3.9,3.9v0.8H8.9V8c0-0.6-0.5-1.1-1.1-1.1
		H4.7C4.2,6.9,3.7,7.4,3.7,8v0.4c-1.2,0.4-2,1.5-2,2.7V30c0,1.6,1.3,2.9,2.9,2.9h28.3c1.6,0,2.9-1.3,2.9-2.9V11.1
		C35.6,9.6,34.3,8.3,32.8,8.3z M18.6,29.3c-5.2,0-9.5-4.3-9.5-9.5c0-5.2,4.3-9.5,9.5-9.5c5.2,0,9.5,4.3,9.5,9.5
		C28.1,25.1,23.8,29.3,18.6,29.3z M28.3,29.3c-0.9,0-1.7-0.8-1.7-1.7s0.8-1.7,1.7-1.7c0.9,0,1.7,0.8,1.7,1.7S29.3,29.3,28.3,29.3z"
		/>
	<circle fill="#898989" cx="18.6" cy="19.8" r="7.3"/>
</g>
</svg>
