<?xml version="1.0" encoding="utf-8"?>
<!-- Generator: Adobe Illustrator 18.0.0, SVG Export Plug-In . SVG Version: 6.00 Build 0)  -->
<svg version="1.2" baseProfile="tiny" id="图层_1"
	 xmlns="http://www.w3.org/2000/svg" xmlns:xlink="http://www.w3.org/1999/xlink" x="0px" y="0px" viewBox="0 0 36.8 36.8"
	 xml:space="preserve">
<g>
	<path fill="#898989" d="M35.6,11.3c0,2.2,0,4.4,0,6.5c-0.1,0.4-0.1,0.7-0.2,1.1c-0.7,4-4.2,7-8.3,7c-1.7,0-3.4,0-5.1,0
		c-0.6,0-1,0.2-1.4,0.5c-2.9,2.6-5.9,5.2-8.8,7.7c-0.1,0.1-0.1,0.1-0.3,0.2c0-2.8,0-5.6,0-8.4c-0.2,0-0.3,0-0.5,0
		c-0.8,0-1.6,0-2.4-0.1c-3.2-0.5-6.1-3.1-6.8-6.3c-0.1-0.5-0.2-1-0.3-1.5c0-2.2,0-4.4,0-6.6c0-0.3,0.1-0.6,0.1-0.8
		c0.5-3.4,3.1-6.2,6.4-6.9c0.5-0.1,1-0.2,1.5-0.3c5.9,0,11.9,0,17.8,0c0.4,0.1,0.8,0.1,1.3,0.2c3.4,0.8,5.6,2.9,6.5,6.3
		C35.5,10.3,35.5,10.8,35.6,11.3z M15.8,14.6c0,1.6,1.3,2.9,2.8,2.9c1.6,0,2.9-1.3,2.9-2.8c0-1.6-1.3-2.9-2.8-2.9
		C17.1,11.7,15.8,13,15.8,14.6z M10.2,17.5c1.5,0,2.8-1.3,2.8-2.9c0-1.6-1.3-2.9-2.9-2.9c-1.6,0-2.8,1.3-2.9,2.8
		C7.3,16.1,8.6,17.5,10.2,17.5z M27.3,11.8c-1.5-0.2-2.9,1-3,2.7c-0.1,1.4,0.9,2.8,2.6,3c1.4,0.1,2.9-0.8,3-2.7
		C30.1,13.1,28.8,11.8,27.3,11.8z"/>
</g>
</svg>
