<?xml version="1.0" encoding="utf-8"?>
<!-- Generator: Adobe Illustrator 18.0.0, SVG Export Plug-In . SVG Version: 6.00 Build 0)  -->
<svg version="1.2" baseProfile="tiny" id="图层_1"
	 xmlns="http://www.w3.org/2000/svg" xmlns:xlink="http://www.w3.org/1999/xlink" x="0px" y="0px" viewBox="0 0 36.8 36.8"
	 xml:space="preserve">
<g>
	<g>
		<path fill="#65513C" d="M29.2,31.7H7.5c-1.4,0-2.5-1.1-2.5-2.5V7.5C5,6.1,6.1,5,7.5,5h21.7c1.4,0,2.5,1.1,2.5,2.5v21.7
			C31.7,30.6,30.6,31.7,29.2,31.7z M7.5,6C6.7,6,6,6.7,6,7.5v21.7c0,0.8,0.7,1.5,1.5,1.5h21.7c0.8,0,1.5-0.7,1.5-1.5V7.5
			c0-0.8-0.7-1.5-1.5-1.5H7.5z"/>
	</g>
	<g>
		<path fill="#65513C" d="M18.6,26.4h-0.5l-0.7-0.6c-0.4-0.4-0.9-0.8-1.3-1.2c-0.3-0.3-0.7-0.6-1.1-0.9c-0.3-0.2-0.7-0.5-1-0.7
			c-0.3-0.2-0.6-0.4-0.9-0.6L13,22.3c-0.4-0.3-0.9-0.6-1.3-1c-0.5-0.5-1.1-1-1.6-1.6c-0.6-0.8-1-1.8-1.1-3c-0.1-1.2,0.1-2.2,0.6-3.1
			c0.8-1.5,2.5-2.5,4.3-2.5c0.5,0,1,0.1,1.5,0.2c1.1,0.4,2,0.9,2.9,1.8l0,0c0.4-0.4,0.9-0.8,1.4-1.1c1.5-1,3.1-1.2,4.6-0.6
			c1.7,0.6,2.8,1.9,3.1,3.7c0.2,0.8,0.1,1.7-0.1,2.6c-0.3,1-0.8,2-1.7,2.8c-0.8,0.8-1.7,1.4-2.5,2c-0.4,0.3-0.9,0.6-1.3,1
			c-0.2,0.1-0.4,0.3-0.6,0.4c-0.3,0.2-0.6,0.5-0.9,0.7c-0.4,0.4-0.8,0.7-1.2,1.1L18.6,26.4z M14,12.1c-1.4,0-2.8,0.8-3.4,2
			c-0.4,0.7-0.6,1.6-0.5,2.5c0.1,1,0.4,1.8,0.9,2.5c0.4,0.5,1,1,1.5,1.5c0.4,0.3,0.8,0.6,1.2,0.9l0.1,0.1c0.3,0.2,0.6,0.4,0.9,0.6
			c0.3,0.2,0.7,0.5,1,0.7c0.4,0.3,0.8,0.6,1.1,0.9c0.4,0.4,0.9,0.8,1.3,1.2l0.3,0.3l0.3-0.2c0.4-0.4,0.8-0.8,1.3-1.1
			c0.3-0.3,0.6-0.5,1-0.8c0.2-0.1,0.4-0.3,0.6-0.4c0.4-0.3,0.9-0.7,1.3-1c0.9-0.6,1.7-1.2,2.4-1.9c0.7-0.7,1.2-1.5,1.4-2.3
			c0.2-0.8,0.2-1.6,0.1-2.2c-0.3-1.5-1.2-2.5-2.5-3c-1.2-0.5-2.5-0.3-3.7,0.5c-0.4,0.3-0.9,0.6-1.3,1L18.9,14
			c-0.1,0.1-0.3,0.2-0.5,0.2c-0.3,0-0.5-0.2-0.5-0.3c-0.8-0.8-1.7-1.4-2.7-1.7C14.8,12.2,14.4,12.1,14,12.1z"/>
	</g>
</g>
</svg>
