<?xml version="1.0" encoding="utf-8"?>
<!-- Generator: Adobe Illustrator 18.0.0, SVG Export Plug-In . SVG Version: 6.00 Build 0)  -->
<svg version="1.2" baseProfile="tiny" id="图层_1"
	 xmlns="http://www.w3.org/2000/svg" xmlns:xlink="http://www.w3.org/1999/xlink" x="0px" y="0px" viewBox="0 0 36.8 36.8"
	 xml:space="preserve">
<g>
	<g>
		<g>
			<g>
				<g>
					<path fill="#65513C" d="M11.9,14.7H7.1c-0.3,0-0.5-0.2-0.5-0.5l0-8.7c0-0.1,0-0.1,0-0.2C7.3,3.7,9,3.1,9.5,3.1
						c0.1,0,0.7,0,1.2,0l1,0c0,0,0,0,0,0c0.2,0,0.4,0.1,0.5,0.2c0.2,0.2,0.2,0.4,0.2,0.6l0,10.4C12.4,14.5,12.1,14.7,11.9,14.7z
						 M7.6,13.7h3.8l0-9.7l-0.7,0c-0.5,0-1,0-1.1,0c0,0-1.5,0.3-2.1,1.6L7.6,13.7z"/>
				</g>
			</g>
			<g>
				<g>
					<path fill="#65513C" d="M18.4,14.7h-4.5c-0.3,0-0.5-0.2-0.5-0.5l0-7.7c0-0.8,0-1.3,0.5-1.5c0.3-0.1,0.7,0,0.8,0.1l3.8,2.5
						c0.2,0.2,0.4,0.3,0.4,0.4c0,0,0.1,0.1,0,0.4l0,5.8C18.9,14.5,18.7,14.7,18.4,14.7z M14.4,13.7h3.5V8.5l-3.5-2.3
						c0,0.1,0,0.3,0,0.4L14.4,13.7z"/>
				</g>
			</g>
			<g>
				<g>
					<path fill="#65513C" d="M26.9,20.6c-0.1,0-0.5,0-0.8-0.2c-0.2-0.2-0.4-0.5-0.4-0.8v-5.7c0.1-0.6,0.7-1,1.4-0.4
						c0.9,0.7,2.6,1.9,2.7,2c0.3,0.2,0.4,0.5,0.4,1.1v3c0,0,0,0.1,0,0.1c0,0.1-0.2,0.8-0.9,1c0,0-0.1,0-0.1,0H26.9z M26.8,14.4v5.2
						c0,0,0.1,0.1,0.1,0.1v0.5l0-0.5h2.2c0,0,0.1-0.1,0.1-0.2v-2.9c0-0.3,0-0.3,0-0.3C29,16.1,27.7,15.1,26.8,14.4z"/>
				</g>
			</g>
			<g>
				<g>
					<path fill="#65513C" d="M21,20.8c-0.6,0-1-0.3-1-0.8c0-1,0-9.4,0-9.6c0-0.8,0.5-0.9,0.7-0.9c0.2,0,0.4,0.1,0.7,0.3
						c0.6,0.4,2.6,1.6,2.8,1.7c0.4,0.3,0.5,0.5,0.5,1.2l0,7.4c0,0.2-0.1,0.7-1,0.7L21,20.8C21,20.8,21,20.8,21,20.8z M21,10.6
						c0,1.4,0,6.8,0,9.2l2.7-0.1c0,0,0,0,0,0l0-7.1c0-0.3,0-0.4,0-0.4C23.5,12.1,22,11.2,21,10.6z"/>
				</g>
			</g>
			<g>
				<g>
					<path fill="#65513C" d="M9.1,33.7c-1.7,0-2.5-1.3-2.5-1.4c0-0.1-0.1-0.2-0.1-0.2l0-15.8c0-0.1,0.1-0.3,0.1-0.4
						c0.1-0.1,0.2-0.2,0.4-0.1l10.8,0c0.3,0,0.6,0,0.8,0.3c0.2,0.2,0.2,0.6,0.2,0.7l0,0.3c0,0.7,0,2.1,0,2.5c0,0.7-0.5,1-0.7,1
						l-4.4,0c0,0,0,0,0,0l0,4.3c0,0.1,0,0.1,0,0.2h1.2c0,0,0-0.1,0-0.1v-2c0-0.2,0-0.6,0.5-0.8c0,0,0.2-0.1,0.4-0.1l0.1,0l9.3,0
						c0.6,0.1,0.8,0.3,0.9,0.5c0.2,0.5-0.1,1-0.2,1.1c0,0.1-0.1,0.1-0.1,0.1l-14.6,9.3C10.4,33.5,9.7,33.7,9.1,33.7z M7.6,32
						c0.2,0.2,0.6,0.7,1.5,0.7c0.5,0,1-0.1,1.5-0.4L25,23.2l-9.1,0l0,1.8c0,0.5-0.3,1-0.9,1.1l-1.5,0c0,0-0.1,0-0.1,0
						c-0.3-0.1-0.8-0.4-0.8-1.2v-4.4c0,0,0-0.3,0.2-0.5c0.2-0.2,0.4-0.3,0.8-0.3l4.2,0c0,0,0,0,0,0c0-0.4,0-1.9,0-2.5l0-0.3
						c0,0,0,0-0.1,0l-10.3,0L7.6,32z"/>
				</g>
			</g>
		</g>
	</g>
</g>
</svg>
