<?xml version="1.0" encoding="utf-8"?>
<!-- Generator: Adobe Illustrator 18.0.0, SVG Export Plug-In . SVG Version: 6.00 Build 0)  -->
<svg version="1.2" baseProfile="tiny" id="图层_1"
	 xmlns="http://www.w3.org/2000/svg" xmlns:xlink="http://www.w3.org/1999/xlink" x="0px" y="0px" viewBox="0 0 36.8 36.8"
	 xml:space="preserve">
<g>
	<g>
		<path fill="#65513C" d="M27.2,16.8H9.5c-1.5,0-2.8-1.2-2.8-2.8V8.5C6.8,7,8,5.8,9.5,5.8h17.7C28.8,5.8,30,7,30,8.5V14
			C30,15.5,28.8,16.8,27.2,16.8z M9.5,7.3c-0.7,0-1.3,0.6-1.3,1.3V14c0,0.7,0.6,1.3,1.3,1.3h17.7c0.7,0,1.3-0.6,1.3-1.3V8.5
			c0-0.7-0.6-1.3-1.3-1.3H9.5z"/>
	</g>
	<g>
		<g>
			<path fill="#65513C" d="M14.8,31H8.1c-1.5,0-2.8-1.2-2.8-2.8v-6.9c0-1.5,1.2-2.8,2.8-2.8h6.7c1.5,0,2.8,1.2,2.8,2.8v6.9
				C17.5,29.7,16.3,31,14.8,31z M8.1,20c-0.7,0-1.3,0.6-1.3,1.3v6.9c0,0.7,0.6,1.3,1.3,1.3h6.7c0.7,0,1.3-0.6,1.3-1.3v-6.9
				c0-0.7-0.6-1.3-1.3-1.3H8.1z"/>
		</g>
		<g>
			<path fill="#65513C" d="M28.7,31H22c-1.5,0-2.8-1.2-2.8-2.8v-6.9c0-1.5,1.2-2.8,2.8-2.8h6.7c1.5,0,2.8,1.2,2.8,2.8v6.9
				C31.4,29.7,30.2,31,28.7,31z M22,20c-0.7,0-1.3,0.6-1.3,1.3v6.9c0,0.7,0.6,1.3,1.3,1.3h6.7c0.7,0,1.3-0.6,1.3-1.3v-6.9
				c0-0.7-0.6-1.3-1.3-1.3H22z"/>
		</g>
	</g>
</g>
</svg>
