<?xml version="1.0" encoding="utf-8"?>
<!-- Generator: Adobe Illustrator 18.0.0, SVG Export Plug-In . SVG Version: 6.00 Build 0)  -->
<svg version="1.2" baseProfile="tiny" id="图层_1"
	 xmlns="http://www.w3.org/2000/svg" xmlns:xlink="http://www.w3.org/1999/xlink" x="0px" y="0px" viewBox="0 0 36.8 36.8"
	 xml:space="preserve">
<g>
	<g>
		<path fill="#65513C" d="M29.5,32.2H7.3c-1.4,0-2.6-1.2-2.6-2.6v-17c0-1.4,1.2-2.6,2.6-2.6h22.2c1.4,0,2.6,1.2,2.6,2.6v17
			C32.1,31.1,30.9,32.2,29.5,32.2z M7.3,11.2c-0.8,0-1.4,0.6-1.4,1.4v17c0,0.8,0.6,1.4,1.4,1.4h22.2c0.8,0,1.4-0.6,1.4-1.4v-17
			c0-0.8-0.6-1.4-1.4-1.4H7.3z"/>
	</g>
	<g>
		<path fill="#65513C" d="M7.2,11.2c-0.3,0-0.6-0.3-0.6-0.6V8.4c0-1.5,1.2-2.7,2.7-2.7h11c1.5,0,2.7,1.2,2.7,2.7v2.1
			c0,0.3-0.3,0.6-0.6,0.6s-0.6-0.3-0.6-0.6V8.4c0-0.8-0.7-1.5-1.5-1.5h-11c-0.8,0-1.5,0.7-1.5,1.5v2.2C7.8,11,7.5,11.2,7.2,11.2z"/>
	</g>
	<g>
		<path fill="#65513C" d="M25.9,10.9c-0.3,0-0.6-0.3-0.6-0.6V6c0-0.8-0.7-1.5-1.5-1.5h-11c-0.8,0-1.5,0.7-1.5,1.5
			c0,0.3-0.3,0.6-0.6,0.6S10.2,6.3,10.2,6c0-1.5,1.2-2.7,2.7-2.7h11c1.5,0,2.7,1.2,2.7,2.7v4.3C26.5,10.6,26.3,10.9,25.9,10.9z"/>
	</g>
	<g>
		<path fill="#65513C" d="M29.5,25.8h-6.3c-1.4,0-2.6-1.2-2.6-2.6V19c0-1.4,1.2-2.6,2.6-2.6h6.3c1.4,0,2.6,1.2,2.6,2.6v4.2
			C32.1,24.7,30.9,25.8,29.5,25.8z M23.2,17.6c-0.8,0-1.4,0.6-1.4,1.4v4.2c0,0.8,0.6,1.4,1.4,1.4h6.3c0.8,0,1.4-0.6,1.4-1.4V19
			c0-0.8-0.6-1.4-1.4-1.4H23.2z"/>
	</g>
</g>
</svg>
