<?xml version="1.0" encoding="utf-8"?>
<!-- Generator: Adobe Illustrator 18.0.0, SVG Export Plug-In . SVG Version: 6.00 Build 0)  -->
<svg version="1.2" baseProfile="tiny" id="图层_1"
	 xmlns="http://www.w3.org/2000/svg" xmlns:xlink="http://www.w3.org/1999/xlink" x="0px" y="0px" viewBox="0 0 36.8 36.8"
	 xml:space="preserve">
<g>
	<g>
		<path fill="#65513C" d="M5.9,28.5l-0.1,0c-0.2,0-0.4-0.1-0.5-0.3c-0.1-0.2,0-0.4,0.1-0.5c1-0.9,1.8-2,2.3-3.2
			c-3.1-1.6-5-4.4-5-7.4c0-4.8,4.8-8.8,10.6-8.8C19.2,8.2,24,12.2,24,17c0,4.8-4.8,8.8-10.6,8.8l-0.2,0c-1.3,1.1-2.8,1.9-4.4,2.4
			C7.8,28.4,6.9,28.5,5.9,28.5z M13.4,9.2c-5.3,0-9.6,3.5-9.6,7.8c0,2.8,1.9,5.4,4.8,6.7c0.2,0.1,0.4,0.4,0.3,0.6
			c-0.5,1.1-1.1,2.2-1.9,3.1c0.5-0.1,1-0.2,1.5-0.3c1.6-0.4,3-1.2,4.1-2.3c0.1-0.1,0.2-0.1,0.3-0.1l0.4,0c5.3,0,9.6-3.5,9.6-7.8
			S18.7,9.2,13.4,9.2z"/>
	</g>
	<g>
		<path fill="#65513C" d="M31.4,24.2c-0.8,0-1.5-0.1-2.3-0.3c-1.3-0.4-2.4-1-3.4-1.8l-0.1,0c-1.1,0-2.2-0.2-3.2-0.5
			c-0.3-0.1-0.4-0.4-0.3-0.6c0.1-0.3,0.4-0.4,0.6-0.3c0.9,0.3,1.9,0.5,2.9,0.5l0.3,0c0.1,0,0.3,0,0.4,0.1c0.9,0.8,2,1.4,3.2,1.7
			c0.3,0.1,0.6,0.1,0.9,0.2c-0.5-0.7-1-1.4-1.3-2.2c-0.1-0.2,0-0.5,0.3-0.6c2.3-1.1,3.7-3,3.7-5.1c0-3.3-3.3-5.9-7.3-5.9
			c-2,0-3.8,0.6-5.2,1.8c-0.2,0.2-0.5,0.1-0.7-0.1c-0.2-0.2-0.1-0.5,0.1-0.7c1.6-1.3,3.6-2,5.9-2c4.6,0,8.3,3.1,8.3,6.9
			c0,2.4-1.4,4.5-3.8,5.8c0.4,0.9,1,1.7,1.7,2.4c0.1,0.1,0.2,0.4,0.1,0.5c-0.1,0.2-0.3,0.3-0.5,0.3L31.4,24.2z"/>
	</g>
	<g>
		<g>
			<path fill="#65513C" d="M17.3,16.1H9.5c-0.3,0-0.5-0.2-0.5-0.5s0.2-0.5,0.5-0.5h7.7c0.3,0,0.5,0.2,0.5,0.5S17.5,16.1,17.3,16.1z"
				/>
		</g>
		<g>
			<path fill="#65513C" d="M17.3,19.8H9.5c-0.3,0-0.5-0.2-0.5-0.5s0.2-0.5,0.5-0.5h7.7c0.3,0,0.5,0.2,0.5,0.5S17.5,19.8,17.3,19.8z"
				/>
		</g>
	</g>
</g>
</svg>
