<?xml version="1.0" encoding="utf-8"?>
<!-- Generator: Adobe Illustrator 18.0.0, SVG Export Plug-In . SVG Version: 6.00 Build 0)  -->
<svg version="1.2" baseProfile="tiny" id="图层_1"
	 xmlns="http://www.w3.org/2000/svg" xmlns:xlink="http://www.w3.org/1999/xlink" x="0px" y="0px" viewBox="0 0 36.8 36.8"
	 xml:space="preserve">
<g>
	<g>
		<g>
			<g>
				<path fill="#65513C" d="M29.5,19.1h-8.1c-1.3,0-2.4-1.1-2.4-2.5v-9c0-1.4,1.1-2.5,2.4-2.5h8.1c1.3,0,2.4,1.1,2.4,2.5v9
					C31.9,18,30.8,19.1,29.5,19.1z M21.4,6.6c-0.5,0-0.9,0.5-0.9,1v9c0,0.6,0.4,1,0.9,1h8.1c0.5,0,0.9-0.5,0.9-1v-9
					c0-0.6-0.4-1-0.9-1H21.4z"/>
			</g>
		</g>
	</g>
	<g>
		<path fill="#65513C" d="M15.5,6.6H5.6c-0.4,0-0.8-0.3-0.8-0.8s0.3-0.8,0.8-0.8h9.9c0.4,0,0.8,0.3,0.8,0.8S15.9,6.6,15.5,6.6z"/>
	</g>
	<g>
		<path fill="#65513C" d="M15.5,12.9H5.6c-0.4,0-0.8-0.3-0.8-0.8s0.3-0.8,0.8-0.8h9.9c0.4,0,0.8,0.3,0.8,0.8S15.9,12.9,15.5,12.9z"
			/>
	</g>
	<g>
		<path fill="#65513C" d="M15.5,19.1H5.6c-0.4,0-0.8-0.3-0.8-0.8s0.3-0.8,0.8-0.8h9.9c0.4,0,0.8,0.3,0.8,0.8S15.9,19.1,15.5,19.1z"
			/>
	</g>
	<g>
		<path fill="#65513C" d="M31.1,25.4H5.6c-0.4,0-0.8-0.3-0.8-0.8s0.3-0.8,0.8-0.8h25.5c0.4,0,0.8,0.3,0.8,0.8S31.5,25.4,31.1,25.4z"
			/>
	</g>
	<g>
		<path fill="#65513C" d="M31.1,31.7H5.6c-0.4,0-0.8-0.3-0.8-0.8s0.3-0.8,0.8-0.8h25.5c0.4,0,0.8,0.3,0.8,0.8S31.5,31.7,31.1,31.7z"
			/>
	</g>
</g>
</svg>
