<?xml version="1.0" encoding="utf-8"?>
<!-- Generator: Adobe Illustrator 18.0.0, SVG Export Plug-In . SVG Version: 6.00 Build 0)  -->
<svg version="1.2" baseProfile="tiny" id="图层_1"
	 xmlns="http://www.w3.org/2000/svg" xmlns:xlink="http://www.w3.org/1999/xlink" x="0px" y="0px" viewBox="0 0 36.8 36.8"
	 xml:space="preserve">
<g>
	<g>
		<path fill="#65513C" d="M18.4,17c-4.1,0-7.4-3.3-7.4-7.4s3.3-7.4,7.4-7.4s7.4,3.3,7.4,7.4S22.5,17,18.4,17z M18.4,3.5
			c-3.4,0-6.1,2.7-6.1,6.1s2.7,6.1,6.1,6.1s6.1-2.7,6.1-6.1S21.7,3.5,18.4,3.5z"/>
	</g>
	<g>
		<path fill="#65513C" d="M18.4,34.6c-9.1,0-12.5-5.4-12.6-5.6c-0.1-0.1-0.1-0.2-0.1-0.3c0-7,5.7-12.7,12.7-12.7s12.7,5.7,12.7,12.7
			c0,0.1,0,0.2-0.1,0.3C30.8,29.2,27.5,34.6,18.4,34.6z M7,28.4c0.6,0.8,3.8,4.8,11.4,4.8c7.6,0,10.8-4,11.4-4.8
			c-0.1-6.2-5.2-11.2-11.4-11.2S7.1,22.3,7,28.4z"/>
	</g>
</g>
</svg>
