<?xml version="1.0" encoding="utf-8"?>
<!-- Generator: Adobe Illustrator 18.0.0, SVG Export Plug-In . SVG Version: 6.00 Build 0)  -->
<svg version="1.2" baseProfile="tiny" id="图层_1"
	 xmlns="http://www.w3.org/2000/svg" xmlns:xlink="http://www.w3.org/1999/xlink" x="0px" y="0px" viewBox="0 0 36.8 36.8"
	 xml:space="preserve">
<g>
	<g>
		<path fill="#65513C" d="M29.6,25.6H7.1c-1.5,0-2.8-1.2-2.8-2.8V7.6c0-1.5,1.2-2.8,2.8-2.8h22.5c1.5,0,2.8,1.2,2.8,2.8v15.3
			C32.4,24.4,31.1,25.6,29.6,25.6z M7.1,6.3c-0.7,0-1.3,0.6-1.3,1.3v15.3c0,0.7,0.6,1.3,1.3,1.3h22.5c0.7,0,1.3-0.6,1.3-1.3V7.6
			c0-0.7-0.6-1.3-1.3-1.3H7.1z"/>
	</g>
	<g>
		<path fill="#65513C" d="M18.4,31.9c-0.4,0-0.8-0.3-0.8-0.8v-6.3c0-0.4,0.3-0.8,0.8-0.8s0.8,0.3,0.8,0.8v6.3
			C19.1,31.6,18.8,31.9,18.4,31.9z"/>
	</g>
	<g>
		<path fill="#65513C" d="M29.5,31.9H7.2c-0.4,0-0.8-0.3-0.8-0.8s0.3-0.8,0.8-0.8h22.3c0.4,0,0.8,0.3,0.8,0.8S29.9,31.9,29.5,31.9z"
			/>
	</g>
</g>
</svg>
